# xmcd
#
# Track frame offsets:
#  150
#  18450
#  42450
#  58575
#  75525
#  86625
#  103500
#  119250
#  133575
#  151350
#  169200
#  181275
#
# Disc length: 2600 seconds
#
# Revision: 0
# Processed by: cddbd v1.4PL0 Copyright (c) Steve Scherf et al.
# Submitted via: AltoMP3_Maker 3.0
#
DISCID=970a260c
DTITLE=Lazy Lester - All Over You
DYEAR=1900
DGENRE=
TTITLE0=I Need Money
TTITLE1=The Sun Is Shinning
TTITLE2=Strange Things Happen
TTITLE3=If You Think I've Lost You
TTITLE4=I'm A Lover Not A Fighter
TTITLE5=Irene
TTITLE6=Yo're Gonna Ruin Me Baby
TTITLE7=Nothing But The Devil
TTITLE8=I Made Up My Mind
TTITLE9=Hello Mary Lee
TTITLE10=Tell Me Pretty Baby
TTITLE11=My Home Is A Prison
EXTD=
EXTT0=
EXTT1=
EXTT2=
EXTT3=
EXTT4=
EXTT5=
EXTT6=
EXTT7=
EXTT8=
EXTT9=
EXTT10=
EXTT11=
PLAYORDER=
